<svg xmlns="http://www.w3.org/2000/svg" width="200" height="68" viewBox="0 0 200 68">
  <path fill="#4285F4" d="M20.66 24.2v7.13H35.3c-.43 3.43-1.6 5.94-3.37 7.7-2.17 2.17-5.55 4.54-11.27 4.54-8.98 0-16-7.24-16-16.22s7.02-16.22 16-16.22c4.84 0 8.38 1.9 10.99 4.4l5.04-5.04C33.3 7.21 28.12 4 20.66 4 9.68 4 .58 12.82.58 23.8c0 10.98 9.1 19.8 20.08 19.8 5.9 0 10.33-1.93 13.81-5.56 3.57-3.57 4.68-8.59 4.68-12.64 0-1.25-.1-2.42-.3-3.39H20.66z"/>
  <path fill="#EA4335" d="M64.14 18.37c-7.7 0-13.98 5.86-13.98 13.94 0 8 6.28 13.94 13.98 13.94s13.98-5.93 13.98-13.94c0-8.08-6.28-13.94-13.98-13.94zm0 22.38c-4.22 0-7.86-3.48-7.86-8.44 0-5.03 3.64-8.44 7.86-8.44 4.22 0 7.86 3.41 7.86 8.44 0 5-3.64 8.44-7.86 8.44z"/>
  <path fill="#FBBC05" d="M104.14 18.37c-7.7 0-13.98 5.86-13.98 13.94 0 8 6.28 13.94 13.98 13.94s13.98-5.93 13.98-13.94c0-8.08-6.28-13.94-13.98-13.94zm0 22.38c-4.22 0-7.86-3.48-7.86-8.44 0-5.03 3.64-8.44 7.86-8.44 4.22 0 7.86 3.41 7.86 8.44 0 5-3.64 8.44-7.86 8.44z"/>
  <path fill="#34A853" d="M141.14 3.8v39.32c0 8.16-4.82 14.47-13.58 14.47-6.92 0-11.06-5.03-12.62-9.16l5.36-2.23c.96 2.3 3.33 5.03 7.26 5.03 4.75 0 7.7-2.93 7.7-8.44v-2.07h-.22c-1.42 1.75-4.14 3.27-7.58 3.27-7.2 0-13.8-6.28-13.8-14.36 0-8.15 6.6-14.01 13.8-14.01 3.41 0 6.14 1.53 7.58 3.2h.22v-2.41h5.88v12.39zm-5.46 15.83c0-5.1-3.41-8.83-7.76-8.83-4.42 0-8.12 3.73-8.12 8.83 0 5.03 3.7 8.7 8.12 8.7 4.35 0 7.76-3.7 7.76-8.7z"/>
  <path fill="#34A853" d="M153.14 4v42h-6V4h6z"/>
  <path fill="#EA4335" d="M176.14 36.6l4.68 3.12c-1.53 2.27-5.2 6.17-11.56 6.17-7.88 0-13.76-6.1-13.76-13.9 0-8.26 5.93-13.9 13.08-13.9 7.2 0 10.72 5.73 11.88 8.83l.63 1.58-18.56 7.7c1.42 2.78 3.63 4.2 6.73 4.2 3.12 0 5.28-1.53 6.88-3.87zm-14.56-5l12.4-5.14c-.68-1.75-2.74-2.96-5.14-2.96-3.1 0-7.4 2.74-7.26 8.1z"/>
</svg>
