<svg xmlns="http://www.w3.org/2000/svg" width="200" height="58" viewBox="0 0 200 58">
  <path fill="white" d="M14.2 13.6v10.5h12v-10.5h5.8v27.2h-5.8V29.4h-12v11.4H8.4V13.6h5.8zM46.6 40.8h-5.4V38h-.1c-1.4 2.1-3.6 3.4-6.4 3.4-5.2 0-7.4-2.8-7.4-7.6V22.2h5.6v10.6c0 3.2 1.2 4.8 3.8 4.8 3 0 4.3-2 4.3-5.4V22.2h5.6v18.6zM60.6 21.6c3 0 5.4 1 7 3.2h.1v-2.6h5.4v17.8c0 6.6-4.4 10.6-11 10.6-4.4 0-8.4-2.2-9.8-6l5-2.1c.8 2 2.6 3.2 5 3.2 3.2 0 5.2-2.2 5.2-5.8v-1.6h-.1c-1.4 1.8-3.6 3-6.4 3-5.8 0-10-4.6-10-10 0-5.6 4.2-9.7 9.6-9.7zm.9 14.8c3 0 5.4-2.2 5.4-5.4 0-3-2.2-5.2-5.4-5.2-3 0-5 2.4-5 5.3 0 3 2.2 5.3 5 5.3zM89 26.4c-1-.4-1.8-.6-3-.6-3.2 0-5 2.4-5 6v9h-5.6V22.2h5.4v3.2h.1c1-2.4 3-3.8 5.6-3.8.8 0 1.6.1 2.4.4l.1 4.4zM101.4 21.6c5.8 0 10.6 4 10.6 10 0 5.8-4.8 9.8-10.6 9.8-5.8 0-10.4-4-10.4-9.8 0-6 4.6-10 10.4-10zm0 14.8c3 0 5-2.4 5-5 0-2.8-2-5.2-5-5.2-3 0-5 2.4-5 5.2 0 2.6 2 5 5 5zM119 13v6.8c1.6-1.2 3.6-1.8 5.6-1.8 2.8 0 5.2 1 7 2.8 1.8 1.8 2.8 4.4 2.8 7.2 0 2.8-1 5.4-2.8 7.2-1.8 1.8-4.2 2.8-7 2.8-2 0-4-.6-5.6-1.8v1.6h-5.4V13H119zm4.4 22.4c3 0 5.4-2.4 5.4-5.4 0-3-2.4-5.4-5.4-5.4-3 0-5.4 2.4-5.4 5.4 0 3 2.4 5.4 5.4 5.4z"/>
  <circle fill="#FF7A59" cx="148" cy="29" r="12"/>
  <path fill="white" d="M148 22c-1.6 0-3 .6-4 1.6v-2.2c0-.8-.6-1.4-1.4-1.4-.8 0-1.4.6-1.4 1.4v16.2c0 .8.6 1.4 1.4 1.4.8 0 1.4-.6 1.4-1.4v-2.2c1 1 2.4 1.6 4 1.6 3.6 0 6.4-2.8 6.4-7.4 0-4.6-2.8-7.6-6.4-7.6zm-.6 12.2c-2.2 0-3.8-2-3.8-4.8s1.6-4.8 3.8-4.8c2.2 0 3.8 2 3.8 4.8s-1.6 4.8-3.8 4.8z"/>
  <path fill="white" d="M163 22.2h-2.4v-3.4c0-.6-.4-1-1-1h-.4c-.6 0-1 .4-1 1v3.4H156c-.6 0-1 .4-1 1v.2c0 .6.4 1 1 1h2.2v8.8c0 3.4 1.6 5.2 4.8 5.2.8 0 1.4-.2 1.8-.4.4-.2.6-.6.4-1l-.2-.4c-.2-.4-.6-.6-1-.4-.2.1-.6.2-1 .2-1.6 0-2.4-1-2.4-3V24.4H163c.6 0 1-.4 1-1v-.2c0-.6-.4-1-1-1z"/>
</svg>
