<svg xmlns="http://www.w3.org/2000/svg" viewBox="0 0 800 450" fill="none">
  <defs>
    <linearGradient id="bg09" x1="0%" y1="0%" x2="100%" y2="100%">
      <stop offset="0%" style="stop-color:#0a0a12"/><stop offset="100%" style="stop-color:#12101e"/>
    </linearGradient>
    <filter id="glow09"><feGaussianBlur stdDeviation="5" result="b"/><feMerge><feMergeNode in="b"/><feMergeNode in="SourceGraphic"/></feMerge></filter>
    <filter id="soft09"><feGaussianBlur stdDeviation="30" result="b"/><feMerge><feMergeNode in="b"/><feMergeNode in="SourceGraphic"/></feMerge></filter>
  </defs>
  <rect width="800" height="450" fill="url(#bg09)"/>
  <g opacity="0.03" stroke="#fff" stroke-width="0.5">
    <line x1="0" y1="112" x2="800" y2="112"/><line x1="0" y1="225" x2="800" y2="225"/><line x1="0" y1="337" x2="800" y2="337"/>
    <line x1="200" y1="0" x2="200" y2="450"/><line x1="400" y1="0" x2="400" y2="450"/><line x1="600" y1="0" x2="600" y2="450"/>
  </g>
  <circle cx="400" cy="215" r="170" fill="#ff6b35" opacity="0.04" filter="url(#soft09)"/>
  <!-- Funnel shape -->
  <path d="M260,120 L540,120 L480,220 L450,320 L350,320 L320,220 Z" stroke="#ff6b35" stroke-width="1" fill="none" opacity="0.25"/>
  <path d="M290,150 L510,150 L465,220 L440,290 L360,290 L335,220 Z" stroke="#ff8c42" stroke-width="0.8" fill="rgba(255,107,53,0.03)" opacity="0.2" stroke-dasharray="4 4"/>
  <!-- Funnel stages -->
  <line x1="280" y1="170" x2="520" y2="170" stroke="#ff6b35" stroke-width="0.5" opacity="0.12"/>
  <line x1="310" y1="220" x2="490" y2="220" stroke="#ff6b35" stroke-width="0.5" opacity="0.12"/>
  <line x1="340" y1="270" x2="460" y2="270" stroke="#ff6b35" stroke-width="0.5" opacity="0.12"/>
  <!-- Dots entering funnel -->
  <circle cx="320" cy="100" r="3" fill="#ff6b35" opacity="0.4" filter="url(#glow09)"/>
  <circle cx="380" cy="95" r="3" fill="#ff8c42" opacity="0.35" filter="url(#glow09)"/>
  <circle cx="440" cy="100" r="3" fill="#ff6b35" opacity="0.4" filter="url(#glow09)"/>
  <circle cx="500" cy="98" r="3" fill="#ff8c42" opacity="0.3" filter="url(#glow09)"/>
  <!-- Conversion arrow out -->
  <circle cx="400" cy="340" r="6" fill="#ff6b35" opacity="0.8" filter="url(#glow09)"/>
  <line x1="400" y1="350" x2="400" y2="380" stroke="#ff6b35" stroke-width="1.5" opacity="0.5"/>
  <polyline points="392,372 400,384 408,372" stroke="#ff6b35" stroke-width="1.5" fill="none" opacity="0.5"/>
  <!-- Percentage labels -->
  <text x="570" y="148" font-family="Inter,sans-serif" font-size="10" fill="#ff6b35" opacity="0.3">100%</text>
  <text x="510" y="225" font-family="Inter,sans-serif" font-size="10" fill="#ff6b35" opacity="0.25">42%</text>
  <text x="475" y="275" font-family="Inter,sans-serif" font-size="10" fill="#ff8c42" opacity="0.25">18%</text>
  <text x="455" y="345" font-family="Inter,sans-serif" font-size="10" fill="#ff6b35" opacity="0.35">4.2%</text>
  <text x="400" y="420" font-family="Inter,sans-serif" font-size="11" font-weight="600" letter-spacing="3" fill="#ff6b35" text-anchor="middle" opacity="0.35">CONVERSION OPTIMIZATION</text>
  <g stroke="#ff6b35" stroke-width="1" opacity="0.18">
    <line x1="24" y1="24" x2="60" y2="24"/><line x1="24" y1="24" x2="24" y2="60"/>
    <line x1="740" y1="426" x2="776" y2="426"/><line x1="776" y1="390" x2="776" y2="426"/>
  </g>
</svg>