<svg xmlns="http://www.w3.org/2000/svg" viewBox="0 0 800 450" fill="none">
  <defs>
    <linearGradient id="bg06" x1="0%" y1="0%" x2="100%" y2="100%">
      <stop offset="0%" style="stop-color:#0a0a12"/><stop offset="100%" style="stop-color:#12101e"/>
    </linearGradient>
    <filter id="glow06"><feGaussianBlur stdDeviation="5" result="b"/><feMerge><feMergeNode in="b"/><feMergeNode in="SourceGraphic"/></feMerge></filter>
    <filter id="soft06"><feGaussianBlur stdDeviation="30" result="b"/><feMerge><feMergeNode in="b"/><feMergeNode in="SourceGraphic"/></feMerge></filter>
  </defs>
  <rect width="800" height="450" fill="url(#bg06)"/>
  <g opacity="0.03" stroke="#fff" stroke-width="0.5">
    <line x1="0" y1="112" x2="800" y2="112"/><line x1="0" y1="225" x2="800" y2="225"/><line x1="0" y1="337" x2="800" y2="337"/>
    <line x1="200" y1="0" x2="200" y2="450"/><line x1="400" y1="0" x2="400" y2="450"/><line x1="600" y1="0" x2="600" y2="450"/>
  </g>
  <circle cx="400" cy="210" r="170" fill="#ff6b35" opacity="0.04" filter="url(#soft06)"/>
  <!-- Central connection hub -->
  <circle cx="400" cy="210" r="38" fill="rgba(255,107,53,0.07)" stroke="#ff6b35" stroke-width="1.5" opacity="0.6" filter="url(#glow06)"/>
  <circle cx="400" cy="210" r="24" fill="rgba(255,107,53,0.1)" stroke="#ff8c42" stroke-width="1" opacity="0.7"/>
  <circle cx="400" cy="210" r="10" fill="#ff6b35" opacity="0.5" filter="url(#glow06)"/>
  <!-- Connection orbit rings -->
  <circle cx="400" cy="210" r="100" stroke="#ff6b35" stroke-width="0.6" opacity="0.08" stroke-dasharray="5 5"/>
  <circle cx="400" cy="210" r="145" stroke="#ff8c42" stroke-width="0.6" opacity="0.06" stroke-dasharray="4 6"/>
  <!-- Social platform nodes -->
  <!-- Instagram (top) -->
  <circle cx="400" cy="100" r="28" fill="#1a1a28" stroke="#ff6b35" stroke-width="1.2" opacity="0.7"/>
  <rect x="389" y="89" width="22" height="22" rx="6" fill="none" stroke="#ff6b35" stroke-width="1.5" opacity="0.7"/>
  <circle cx="400" cy="100" r="6" fill="none" stroke="#ff6b35" stroke-width="1.2" opacity="0.6"/>
  <circle cx="407" cy="93" r="1.5" fill="#ff6b35" opacity="0.7"/>
  <!-- TikTok (top-right) -->
  <circle cx="528" cy="142" r="28" fill="#1a1a28" stroke="#ff8c42" stroke-width="1.2" opacity="0.65"/>
  <text x="528" y="148" font-family="Inter,sans-serif" font-size="15" font-weight="800" fill="#ff8c42" text-anchor="middle" opacity="0.6">TT</text>
  <!-- Twitter/X (right) -->
  <circle cx="560" cy="210" r="28" fill="#1a1a28" stroke="#ff6b35" stroke-width="1.2" opacity="0.6"/>
  <text x="560" y="216" font-family="Inter,sans-serif" font-size="16" font-weight="800" fill="#ff6b35" text-anchor="middle" opacity="0.55">X</text>
  <!-- Snapchat (bottom-right) -->
  <circle cx="528" cy="278" r="28" fill="#1a1a28" stroke="#ff8c42" stroke-width="1.2" opacity="0.55"/>
  <circle cx="528" cy="278" r="8" fill="none" stroke="#ff8c42" stroke-width="1.2" opacity="0.5"/>
  <!-- Facebook (bottom) -->
  <circle cx="400" cy="320" r="28" fill="#1a1a28" stroke="#ff6b35" stroke-width="1.2" opacity="0.6"/>
  <text x="400" y="326" font-family="Inter,sans-serif" font-size="17" font-weight="800" fill="#ff6b35" text-anchor="middle" opacity="0.55">f</text>
  <!-- LinkedIn (bottom-left) -->
  <circle cx="272" cy="278" r="28" fill="#1a1a28" stroke="#ff8c42" stroke-width="1.2" opacity="0.55"/>
  <text x="272" y="284" font-family="Inter,sans-serif" font-size="12" font-weight="800" fill="#ff8c42" text-anchor="middle" opacity="0.5">in</text>
  <!-- YouTube (left) -->
  <circle cx="240" cy="210" r="28" fill="#1a1a28" stroke="#ff6b35" stroke-width="1.2" opacity="0.6"/>
  <polygon points="246,210 236,204 236,216" fill="#ff6b35" opacity="0.6"/>
  <!-- Pinterest (top-left) -->
  <circle cx="272" cy="142" r="28" fill="#1a1a28" stroke="#ff8c42" stroke-width="1.2" opacity="0.6"/>
  <circle cx="272" cy="138" r="7" fill="none" stroke="#ff8c42" stroke-width="1.5" opacity="0.55"/>
  <line x1="272" y1="145" x2="272" y2="154" stroke="#ff8c42" stroke-width="1.5" opacity="0.5"/>
  <!-- Connection lines from center to nodes -->
  <line x1="400" y1="172" x2="400" y2="128" stroke="#ff6b35" stroke-width="0.8" opacity="0.3" filter="url(#glow06)"/>
  <line x1="432" y1="182" x2="504" y2="159" stroke="#ff8c42" stroke-width="0.8" opacity="0.25"/>
  <line x1="438" y1="210" x2="532" y2="210" stroke="#ff6b35" stroke-width="0.8" opacity="0.25"/>
  <line x1="432" y1="238" x2="504" y2="261" stroke="#ff8c42" stroke-width="0.8" opacity="0.22"/>
  <line x1="400" y1="248" x2="400" y2="292" stroke="#ff6b35" stroke-width="0.8" opacity="0.28"/>
  <line x1="368" y1="238" x2="296" y2="261" stroke="#ff8c42" stroke-width="0.8" opacity="0.22"/>
  <line x1="362" y1="210" x2="268" y2="210" stroke="#ff6b35" stroke-width="0.8" opacity="0.25"/>
  <line x1="368" y1="182" x2="296" y2="159" stroke="#ff8c42" stroke-width="0.8" opacity="0.22"/>
  <!-- Analytics numbers floating -->
  <text x="150" y="135" font-family="Inter,sans-serif" font-size="13" font-weight="700" fill="#ff6b35" opacity="0.3">+18.2%</text>
  <text x="590" y="135" font-family="Inter,sans-serif" font-size="13" font-weight="700" fill="#ff8c42" opacity="0.28">4.7M</text>
  <text x="600" y="290" font-family="Inter,sans-serif" font-size="13" font-weight="700" fill="#ff6b35" opacity="0.25">92K</text>
  <text x="130" y="290" font-family="Inter,sans-serif" font-size="13" font-weight="700" fill="#ff8c42" opacity="0.25">+34%</text>
  <text x="400" y="415" font-family="Inter,sans-serif" font-size="11" font-weight="600" letter-spacing="3" fill="#ff6b35" text-anchor="middle" opacity="0.35">SOCIAL MEDIA STRATEGY</text>
  <g stroke="#ff6b35" stroke-width="1" opacity="0.18">
    <line x1="24" y1="24" x2="60" y2="24"/><line x1="24" y1="24" x2="24" y2="60"/>
    <line x1="740" y1="426" x2="776" y2="426"/><line x1="776" y1="390" x2="776" y2="426"/>
  </g>
</svg>
