<svg xmlns="http://www.w3.org/2000/svg" viewBox="0 0 800 450" fill="none">
  <defs>
    <linearGradient id="bg02" x1="0%" y1="0%" x2="100%" y2="100%">
      <stop offset="0%" style="stop-color:#0a0a12"/><stop offset="100%" style="stop-color:#12101e"/>
    </linearGradient>
    <filter id="glow02"><feGaussianBlur stdDeviation="5" result="b"/><feMerge><feMergeNode in="b"/><feMergeNode in="SourceGraphic"/></feMerge></filter>
    <filter id="soft02"><feGaussianBlur stdDeviation="30" result="b"/><feMerge><feMergeNode in="b"/><feMergeNode in="SourceGraphic"/></feMerge></filter>
  </defs>
  <rect width="800" height="450" fill="url(#bg02)"/>
  <g opacity="0.03" stroke="#fff" stroke-width="0.5">
    <line x1="0" y1="112" x2="800" y2="112"/><line x1="0" y1="225" x2="800" y2="225"/><line x1="0" y1="337" x2="800" y2="337"/>
    <line x1="200" y1="0" x2="200" y2="450"/><line x1="400" y1="0" x2="400" y2="450"/><line x1="600" y1="0" x2="600" y2="450"/>
  </g>
  <circle cx="400" cy="210" r="170" fill="#ff6b35" opacity="0.04" filter="url(#soft02)"/>
  <!-- Logo construction circles -->
  <circle cx="400" cy="210" r="130" stroke="#ff6b35" stroke-width="0.8" opacity="0.08" stroke-dasharray="4 4"/>
  <circle cx="400" cy="210" r="90" stroke="#ff8c42" stroke-width="0.8" opacity="0.12" stroke-dasharray="3 3"/>
  <circle cx="400" cy="210" r="55" stroke="#ff6b35" stroke-width="1" opacity="0.2"/>
  <!-- Hexagon -->
  <polygon points="400,162 441,185 441,232 400,255 359,232 359,185" fill="rgba(255,107,53,0.06)" stroke="#ff6b35" stroke-width="1.5" opacity="0.7"/>
  <polygon points="400,178 428,193 428,224 400,239 372,224 372,193" fill="rgba(255,107,53,0.08)" stroke="#ff8c42" stroke-width="1" opacity="0.5"/>
  <circle cx="400" cy="210" r="8" fill="#ff6b35" opacity="0.5" filter="url(#glow02)"/>
  <circle cx="400" cy="210" r="3" fill="#ff8c42" opacity="0.9" filter="url(#glow02)"/>
  <!-- Construction axis lines -->
  <line x1="400" y1="80" x2="400" y2="340" stroke="#ff6b35" stroke-width="0.5" opacity="0.07" stroke-dasharray="2 5"/>
  <line x1="270" y1="210" x2="530" y2="210" stroke="#ff6b35" stroke-width="0.5" opacity="0.07" stroke-dasharray="2 5"/>
  <!-- Color palette swatches -->
  <rect x="150" y="358" width="48" height="28" rx="6" fill="#ff6b35" opacity="0.85"/>
  <rect x="206" y="358" width="48" height="28" rx="6" fill="#ff8c42" opacity="0.7"/>
  <rect x="262" y="358" width="48" height="28" rx="6" fill="rgba(255,107,53,0.4)"/>
  <rect x="318" y="358" width="48" height="28" rx="6" fill="rgba(255,140,66,0.2)"/>
  <rect x="374" y="358" width="48" height="28" rx="6" fill="rgba(255,107,53,0.08)" stroke="#ff6b35" stroke-width="0.8" opacity="0.35"/>
  <!-- Typography lines left -->
  <rect x="78" y="130" width="100" height="8" rx="2" fill="#ff6b35" opacity="0.55"/>
  <rect x="78" y="148" width="80" height="5" rx="2" fill="#fff" opacity="0.07"/>
  <rect x="78" y="161" width="90" height="5" rx="2" fill="#fff" opacity="0.05"/>
  <rect x="78" y="174" width="68" height="5" rx="2" fill="#fff" opacity="0.04"/>
  <!-- Typography lines right -->
  <rect x="622" y="130" width="100" height="8" rx="2" fill="#ff8c42" opacity="0.45"/>
  <rect x="622" y="148" width="80" height="5" rx="2" fill="#fff" opacity="0.06"/>
  <rect x="622" y="161" width="95" height="5" rx="2" fill="#fff" opacity="0.05"/>
  <!-- Corner nodes -->
  <circle cx="400" cy="162" r="3.5" fill="#ff6b35" opacity="0.7" filter="url(#glow02)"/>
  <circle cx="441" cy="185" r="3" fill="#ff8c42" opacity="0.6" filter="url(#glow02)"/>
  <circle cx="441" cy="232" r="3" fill="#ff6b35" opacity="0.55" filter="url(#glow02)"/>
  <circle cx="400" cy="255" r="3.5" fill="#ff8c42" opacity="0.65" filter="url(#glow02)"/>
  <circle cx="359" cy="232" r="3" fill="#ff6b35" opacity="0.55" filter="url(#glow02)"/>
  <circle cx="359" cy="185" r="3" fill="#ff8c42" opacity="0.6" filter="url(#glow02)"/>
  <text x="400" y="415" font-family="Inter,sans-serif" font-size="11" font-weight="600" letter-spacing="3" fill="#ff6b35" text-anchor="middle" opacity="0.35">BRAND IDENTITY</text>
  <g stroke="#ff6b35" stroke-width="1" opacity="0.18">
    <line x1="24" y1="24" x2="60" y2="24"/><line x1="24" y1="24" x2="24" y2="60"/>
    <line x1="740" y1="426" x2="776" y2="426"/><line x1="776" y1="390" x2="776" y2="426"/>
  </g>
</svg>
