<svg xmlns="http://www.w3.org/2000/svg" viewBox="0 0 800 450" fill="none">
  <defs>
    <linearGradient id="bg04" x1="0%" y1="0%" x2="100%" y2="100%">
      <stop offset="0%" style="stop-color:#0a0a12"/><stop offset="100%" style="stop-color:#12101e"/>
    </linearGradient>
    <filter id="glow04"><feGaussianBlur stdDeviation="5" result="b"/><feMerge><feMergeNode in="b"/><feMergeNode in="SourceGraphic"/></feMerge></filter>
    <filter id="soft04"><feGaussianBlur stdDeviation="30" result="b"/><feMerge><feMergeNode in="b"/><feMergeNode in="SourceGraphic"/></feMerge></filter>
  </defs>
  <rect width="800" height="450" fill="url(#bg04)"/>
  <g opacity="0.03" stroke="#fff" stroke-width="0.5">
    <line x1="0" y1="112" x2="800" y2="112"/><line x1="0" y1="225" x2="800" y2="225"/><line x1="0" y1="337" x2="800" y2="337"/>
    <line x1="200" y1="0" x2="200" y2="450"/><line x1="400" y1="0" x2="400" y2="450"/><line x1="600" y1="0" x2="600" y2="450"/>
  </g>
  <circle cx="400" cy="200" r="160" fill="#ff6b35" opacity="0.04" filter="url(#soft04)"/>
  <!-- Browser window -->
  <rect x="140" y="80" width="520" height="310" rx="14" fill="#0d0d18" stroke="#ff6b35" stroke-width="1.2" opacity="0.6"/>
  <!-- Browser chrome bar -->
  <rect x="140" y="80" width="520" height="36" rx="14" fill="#111120"/>
  <rect x="140" y="102" width="520" height="14" fill="#111120"/>
  <!-- Traffic lights -->
  <circle cx="166" cy="98" r="5" fill="#ff6b35" opacity="0.4"/>
  <circle cx="182" cy="98" r="5" fill="#ff8c42" opacity="0.3"/>
  <circle cx="198" cy="98" r="5" fill="#fff" opacity="0.08"/>
  <!-- URL bar -->
  <rect x="220" y="90" width="300" height="16" rx="8" fill="#1a1a28" opacity="0.8"/>
  <rect x="228" y="94" width="120" height="8" rx="2" fill="#ff6b35" opacity="0.2"/>
  <!-- Browser content area -->
  <rect x="152" y="128" width="496" height="250" rx="6" fill="#0a0a12"/>
  <!-- Performance score circle -->
  <circle cx="280" cy="240" r="70" fill="none" stroke="#1a1a28" stroke-width="8"/>
  <circle cx="280" cy="240" r="70" fill="none" stroke="#ff6b35" stroke-width="8" stroke-dasharray="352 440" stroke-dashoffset="110" opacity="0.8" filter="url(#glow04)" stroke-linecap="round"/>
  <circle cx="280" cy="240" r="50" fill="none" stroke="#1a1a28" stroke-width="4"/>
  <text x="280" y="234" font-family="Inter,sans-serif" font-size="28" font-weight="800" fill="#ff6b35" text-anchor="middle" opacity="0.9">98</text>
  <text x="280" y="252" font-family="Inter,sans-serif" font-size="10" fill="#fff" text-anchor="middle" opacity="0.35" letter-spacing="1">SCORE</text>
  <!-- Metrics right panel -->
  <rect x="380" y="148" width="248" height="42" rx="8" fill="#1a1a28" opacity="0.7"/>
  <text x="394" y="164" font-family="Inter,sans-serif" font-size="10" fill="#ff6b35" opacity="0.5" letter-spacing="1">FIRST CONTENTFUL PAINT</text>
  <text x="394" y="181" font-family="Inter,sans-serif" font-size="14" font-weight="700" fill="#fff" opacity="0.65">0.8s</text>
  <rect x="380" y="200" width="248" height="42" rx="8" fill="#1a1a28" opacity="0.6"/>
  <text x="394" y="216" font-family="Inter,sans-serif" font-size="10" fill="#ff8c42" opacity="0.5" letter-spacing="1">LARGEST CONTENTFUL PAINT</text>
  <text x="394" y="233" font-family="Inter,sans-serif" font-size="14" font-weight="700" fill="#fff" opacity="0.6">1.2s</text>
  <rect x="380" y="252" width="248" height="42" rx="8" fill="#1a1a28" opacity="0.5"/>
  <text x="394" y="268" font-family="Inter,sans-serif" font-size="10" fill="#ff6b35" opacity="0.45" letter-spacing="1">CUMULATIVE LAYOUT SHIFT</text>
  <text x="394" y="285" font-family="Inter,sans-serif" font-size="14" font-weight="700" fill="#fff" opacity="0.55">0.02</text>
  <!-- Speed bar -->
  <rect x="174" y="340" width="432" height="6" rx="3" fill="#1a1a28"/>
  <rect x="174" y="340" width="380" height="6" rx="3" fill="#ff6b35" opacity="0.65" filter="url(#glow04)"/>
  <circle cx="554" cy="343" r="5" fill="#ff8c42" opacity="0.9" filter="url(#glow04)"/>
  <!-- Code lines floating -->
  <g opacity="0.12">
    <rect x="174" y="360" width="80" height="4" rx="2" fill="#ff6b35"/>
    <rect x="264" y="360" width="50" height="4" rx="2" fill="#fff"/>
    <rect x="324" y="360" width="70" height="4" rx="2" fill="#ff8c42"/>
  </g>
  <text x="400" y="415" font-family="Inter,sans-serif" font-size="11" font-weight="600" letter-spacing="3" fill="#ff6b35" text-anchor="middle" opacity="0.35">WEB PERFORMANCE</text>
  <g stroke="#ff6b35" stroke-width="1" opacity="0.18">
    <line x1="24" y1="24" x2="60" y2="24"/><line x1="24" y1="24" x2="24" y2="60"/>
    <line x1="740" y1="426" x2="776" y2="426"/><line x1="776" y1="390" x2="776" y2="426"/>
  </g>
</svg>
