<svg xmlns="http://www.w3.org/2000/svg" viewBox="0 0 800 450" fill="none">
  <defs>
    <linearGradient id="bg01" x1="0%" y1="0%" x2="100%" y2="100%">
      <stop offset="0%" style="stop-color:#0a0a12"/><stop offset="100%" style="stop-color:#12101e"/>
    </linearGradient>
    <filter id="glow01"><feGaussianBlur stdDeviation="5" result="b"/><feMerge><feMergeNode in="b"/><feMergeNode in="SourceGraphic"/></feMerge></filter>
    <filter id="soft01"><feGaussianBlur stdDeviation="30" result="b"/><feMerge><feMergeNode in="b"/><feMergeNode in="SourceGraphic"/></feMerge></filter>
  </defs>
  <rect width="800" height="450" fill="url(#bg01)"/>
  <g opacity="0.03" stroke="#fff" stroke-width="0.5">
    <line x1="0" y1="112" x2="800" y2="112"/><line x1="0" y1="225" x2="800" y2="225"/><line x1="0" y1="337" x2="800" y2="337"/>
    <line x1="200" y1="0" x2="200" y2="450"/><line x1="400" y1="0" x2="400" y2="450"/><line x1="600" y1="0" x2="600" y2="450"/>
  </g>
  <circle cx="400" cy="220" r="180" fill="#ff6b35" opacity="0.04" filter="url(#soft01)"/>
  <!-- Neural network nodes -->
  <circle cx="160" cy="140" r="6" fill="#ff6b35" opacity="0.6" filter="url(#glow01)"/>
  <circle cx="160" cy="200" r="6" fill="#ff6b35" opacity="0.6" filter="url(#glow01)"/>
  <circle cx="160" cy="260" r="6" fill="#ff6b35" opacity="0.6" filter="url(#glow01)"/>
  <circle cx="160" cy="320" r="5" fill="#ff8c42" opacity="0.45" filter="url(#glow01)"/>
  <circle cx="300" cy="160" r="7" fill="#ff6b35" opacity="0.7" filter="url(#glow01)"/>
  <circle cx="300" cy="230" r="7" fill="#ff8c42" opacity="0.75" filter="url(#glow01)"/>
  <circle cx="300" cy="300" r="7" fill="#ff6b35" opacity="0.65" filter="url(#glow01)"/>
  <circle cx="420" cy="190" r="10" fill="#ff6b35" opacity="0.9" filter="url(#glow01)"/>
  <circle cx="420" cy="265" r="10" fill="#ff8c42" opacity="0.85" filter="url(#glow01)"/>
  <circle cx="420" cy="225" r="14" fill="#ff6b35" opacity="1" filter="url(#glow01)"/>
  <circle cx="540" cy="175" r="7" fill="#ff6b35" opacity="0.65" filter="url(#glow01)"/>
  <circle cx="540" cy="240" r="7" fill="#ff8c42" opacity="0.7" filter="url(#glow01)"/>
  <circle cx="540" cy="305" r="7" fill="#ff6b35" opacity="0.6" filter="url(#glow01)"/>
  <circle cx="660" cy="190" r="6" fill="#ff6b35" opacity="0.55" filter="url(#glow01)"/>
  <circle cx="660" cy="255" r="6" fill="#ff8c42" opacity="0.5" filter="url(#glow01)"/>
  <circle cx="660" cy="310" r="5" fill="#ff6b35" opacity="0.4" filter="url(#glow01)"/>
  <!-- Connections L1-L2 -->
  <line x1="160" y1="140" x2="300" y2="160" stroke="#ff6b35" stroke-width="0.8" opacity="0.2"/>
  <line x1="160" y1="140" x2="300" y2="230" stroke="#ff6b35" stroke-width="0.8" opacity="0.12"/>
  <line x1="160" y1="200" x2="300" y2="160" stroke="#ff6b35" stroke-width="0.8" opacity="0.15"/>
  <line x1="160" y1="200" x2="300" y2="230" stroke="#ff6b35" stroke-width="0.8" opacity="0.2"/>
  <line x1="160" y1="260" x2="300" y2="230" stroke="#ff6b35" stroke-width="0.8" opacity="0.15"/>
  <line x1="160" y1="260" x2="300" y2="300" stroke="#ff6b35" stroke-width="0.8" opacity="0.2"/>
  <line x1="160" y1="320" x2="300" y2="300" stroke="#ff6b35" stroke-width="0.8" opacity="0.15"/>
  <!-- Connections L2-L3 -->
  <line x1="300" y1="160" x2="420" y2="190" stroke="#ff6b35" stroke-width="1" opacity="0.25"/>
  <line x1="300" y1="160" x2="420" y2="225" stroke="#ff6b35" stroke-width="1" opacity="0.2"/>
  <line x1="300" y1="230" x2="420" y2="225" stroke="#ff6b35" stroke-width="1.2" opacity="0.4" filter="url(#glow01)"/>
  <line x1="300" y1="230" x2="420" y2="265" stroke="#ff6b35" stroke-width="1" opacity="0.25"/>
  <line x1="300" y1="300" x2="420" y2="265" stroke="#ff6b35" stroke-width="1" opacity="0.25"/>
  <!-- Connections L3-L4 -->
  <line x1="420" y1="225" x2="540" y2="175" stroke="#ff8c42" stroke-width="1.2" opacity="0.35" filter="url(#glow01)"/>
  <line x1="420" y1="225" x2="540" y2="240" stroke="#ff8c42" stroke-width="1.2" opacity="0.4" filter="url(#glow01)"/>
  <line x1="420" y1="190" x2="540" y2="175" stroke="#ff6b35" stroke-width="1" opacity="0.25"/>
  <line x1="420" y1="265" x2="540" y2="305" stroke="#ff6b35" stroke-width="1" opacity="0.22"/>
  <!-- Connections L4-L5 -->
  <line x1="540" y1="175" x2="660" y2="190" stroke="#ff6b35" stroke-width="0.8" opacity="0.2"/>
  <line x1="540" y1="240" x2="660" y2="255" stroke="#ff6b35" stroke-width="0.8" opacity="0.2"/>
  <line x1="540" y1="305" x2="660" y2="310" stroke="#ff6b35" stroke-width="0.8" opacity="0.15"/>
  <!-- Data flow pulses -->
  <circle cx="360" cy="222" r="3" fill="#ff6b35" opacity="0.8" filter="url(#glow01)"/>
  <circle cx="480" cy="228" r="3" fill="#ff8c42" opacity="0.75" filter="url(#glow01)"/>
  <text x="400" y="400" font-family="Inter,sans-serif" font-size="11" font-weight="600" letter-spacing="3" fill="#ff6b35" text-anchor="middle" opacity="0.35">AI &amp; NEURAL INTELLIGENCE</text>
  <g stroke="#ff6b35" stroke-width="1" opacity="0.18">
    <line x1="24" y1="24" x2="60" y2="24"/><line x1="24" y1="24" x2="24" y2="60"/>
    <line x1="740" y1="426" x2="776" y2="426"/><line x1="776" y1="390" x2="776" y2="426"/>
  </g>
</svg>
