<svg xmlns="http://www.w3.org/2000/svg" viewBox="0 0 800 450" fill="none">
  <defs>
    <linearGradient id="bg03" x1="0%" y1="0%" x2="100%" y2="100%">
      <stop offset="0%" style="stop-color:#0a0a12"/><stop offset="100%" style="stop-color:#12101e"/>
    </linearGradient>
    <filter id="glow03"><feGaussianBlur stdDeviation="5" result="b"/><feMerge><feMergeNode in="b"/><feMergeNode in="SourceGraphic"/></feMerge></filter>
    <filter id="soft03"><feGaussianBlur stdDeviation="30" result="b"/><feMerge><feMergeNode in="b"/><feMergeNode in="SourceGraphic"/></feMerge></filter>
  </defs>
  <rect width="800" height="450" fill="url(#bg03)"/>
  <g opacity="0.03" stroke="#fff" stroke-width="0.5">
    <line x1="0" y1="112" x2="800" y2="112"/><line x1="0" y1="225" x2="800" y2="225"/><line x1="0" y1="337" x2="800" y2="337"/>
    <line x1="200" y1="0" x2="200" y2="450"/><line x1="400" y1="0" x2="400" y2="450"/><line x1="600" y1="0" x2="600" y2="450"/>
  </g>
  <circle cx="400" cy="210" r="160" fill="#ff6b35" opacity="0.04" filter="url(#soft03)"/>
  <!-- Mobile phone -->
  <rect x="312" y="72" width="176" height="296" rx="22" fill="#0d0d18" stroke="#ff6b35" stroke-width="1.5" opacity="0.7"/>
  <rect x="324" y="92" width="152" height="256" rx="12" fill="#111120"/>
  <rect x="370" y="86" width="60" height="10" rx="5" fill="#0a0a12" opacity="0.8"/>
  <!-- Video thumbnail area -->
  <rect x="332" y="102" width="136" height="80" rx="8" fill="#1a1a2e" opacity="0.8"/>
  <!-- Play button -->
  <circle cx="400" cy="142" r="22" fill="#ff6b35" opacity="0.12"/>
  <circle cx="400" cy="142" r="17" fill="none" stroke="#ff6b35" stroke-width="1.5" opacity="0.65"/>
  <polygon points="407,142 395,135 395,149" fill="#ff6b35" opacity="0.85" filter="url(#glow03)"/>
  <!-- Feed items -->
  <rect x="332" y="194" width="136" height="34" rx="6" fill="#1a1a28" opacity="0.7"/>
  <rect x="332" y="236" width="136" height="34" rx="6" fill="#1a1a28" opacity="0.5"/>
  <rect x="332" y="278" width="136" height="34" rx="6" fill="#1a1a28" opacity="0.35"/>
  <rect x="340" y="201" width="40" height="20" rx="3" fill="#ff6b35" opacity="0.12"/>
  <rect x="340" y="243" width="40" height="20" rx="3" fill="#ff8c42" opacity="0.08"/>
  <!-- Metrics cards left -->
  <rect x="128" y="115" width="120" height="52" rx="10" fill="#1a1a28" stroke="#ff6b35" stroke-width="0.8" opacity="0.7"/>
  <text x="140" y="136" font-family="Inter,sans-serif" font-size="9" fill="#ff6b35" opacity="0.5" letter-spacing="1">VIEWS</text>
  <text x="140" y="154" font-family="Inter,sans-serif" font-size="16" font-weight="700" fill="#fff" opacity="0.65">2.4M</text>
  <rect x="128" y="185" width="120" height="52" rx="10" fill="#1a1a28" stroke="#ff8c42" stroke-width="0.8" opacity="0.6"/>
  <text x="140" y="206" font-family="Inter,sans-serif" font-size="9" fill="#ff8c42" opacity="0.5" letter-spacing="1">ENGAGEMENT</text>
  <text x="140" y="224" font-family="Inter,sans-serif" font-size="16" font-weight="700" fill="#fff" opacity="0.6">87%</text>
  <!-- Metrics cards right -->
  <rect x="552" y="115" width="120" height="52" rx="10" fill="#1a1a28" stroke="#ff6b35" stroke-width="0.8" opacity="0.65"/>
  <text x="564" y="136" font-family="Inter,sans-serif" font-size="9" fill="#ff6b35" opacity="0.5" letter-spacing="1">SHARES</text>
  <text x="564" y="154" font-family="Inter,sans-serif" font-size="16" font-weight="700" fill="#fff" opacity="0.6">49K</text>
  <rect x="552" y="185" width="120" height="52" rx="10" fill="#1a1a28" stroke="#ff8c42" stroke-width="0.8" opacity="0.55"/>
  <text x="564" y="206" font-family="Inter,sans-serif" font-size="9" fill="#ff8c42" opacity="0.45" letter-spacing="1">WATCH TIME</text>
  <text x="564" y="224" font-family="Inter,sans-serif" font-size="16" font-weight="700" fill="#fff" opacity="0.55">12.7h</text>
  <!-- Bar chart at bottom -->
  <g transform="translate(165,308)">
    <rect x="0" y="42" width="14" height="38" rx="3" fill="#ff6b35" opacity="0.3"/>
    <rect x="22" y="22" width="14" height="58" rx="3" fill="#ff6b35" opacity="0.4"/>
    <rect x="44" y="10" width="14" height="70" rx="3" fill="#ff6b35" opacity="0.55"/>
    <rect x="66" y="0" width="14" height="80" rx="3" fill="#ff6b35" opacity="0.75" filter="url(#glow03)"/>
    <rect x="88" y="15" width="14" height="65" rx="3" fill="#ff8c42" opacity="0.5"/>
    <rect x="110" y="28" width="14" height="52" rx="3" fill="#ff6b35" opacity="0.35"/>
    <rect x="132" y="38" width="14" height="42" rx="3" fill="#ff8c42" opacity="0.28"/>
  </g>
  <text x="400" y="415" font-family="Inter,sans-serif" font-size="11" font-weight="600" letter-spacing="3" fill="#ff6b35" text-anchor="middle" opacity="0.35">VIDEO CONTENT STRATEGY</text>
  <g stroke="#ff6b35" stroke-width="1" opacity="0.18">
    <line x1="24" y1="24" x2="60" y2="24"/><line x1="24" y1="24" x2="24" y2="60"/>
    <line x1="740" y1="426" x2="776" y2="426"/><line x1="776" y1="390" x2="776" y2="426"/>
  </g>
</svg>
